<svg xmlns="http://www.w3.org/2000/svg"  viewBox="0 0 32 32"><path fill="#00F673" d="M16.77.01A16.07 16.07 0 0 1 32 16.15c-.02 2.08-2.59 3.1-4.09 1.63l-.17-.17a2.26 2.26 0 0 0-3.17 0c-.88.85-.83 2.3.04 3.15l2.91 2.86c.93.91.96 2.39.06 3.33A16.4 16.4 0 0 1 15.69 32 16.28 16.28 0 0 1 .03 20.48c-.2-.65.62-1.13 1.1-.65.88.86 2.31.92 3.2.08.9-.86.91-2.27.03-3.14L.62 13.1a1.9 1.9 0 0 1-.49-1.94l.02-.04a1.99 1.99 0 0 1 3.27-.8L8.17 15c.27.26.42.62.42 1a7.03 7.03 0 0 0 7.1 6.97c4 0 7.21-3.24 7.1-7.19A7.06 7.06 0 0 0 16 9.03a7.16 7.16 0 0 0-4.56 1.37c-.53.4-1.28.32-1.76-.14L5.74 6.38a2.13 2.13 0 0 1 .28-3.28c.88-.64 2.1-.56 2.87.2l3.17 3.11c.87.86 2.3.86 3.17 0 .87-.86.87-2.25 0-3.1l-.08-.09C13.9 2 14.85-.09 16.6 0l.16.01Z"/><path fill="#fff" d="M18.75 16a3 3 0 1 1-6 0 3 3 0 0 1 6 0Z"/></svg>